<svg xmlns="http://www.w3.org/2000/svg" width="192" height="121.545" viewBox="0 0 192 121.545">
  <g id="Layer_2" data-name="Layer 2" transform="translate(3)">
    <g id="Layer_1" data-name="Layer 1" transform="translate(-3)">
      <path id="Trazado_1" data-name="Trazado 1" d="M4.474,78.59a5.132,5.132,0,0,1,1.194.128,2.588,2.588,0,0,1,.924.384,1.82,1.82,0,0,1,.6.739A2.588,2.588,0,0,1,7.4,80.965a2.261,2.261,0,0,1-.37,1.194,2.346,2.346,0,0,1-.938.782,2.218,2.218,0,0,1,1.265.9,2.73,2.73,0,0,1,.412,1.521A2.659,2.659,0,0,1,7.5,86.61a2.261,2.261,0,0,1-.725.867,3.042,3.042,0,0,1-1.038.483,4.18,4.18,0,0,1-1.194.156H.18V78.59ZM4.19,82.443a1.422,1.422,0,0,0,.882-.256,1.01,1.01,0,0,0,.355-.867,1.237,1.237,0,0,0-.114-.555A.981.981,0,0,0,5,80.439a1.1,1.1,0,0,0-.441-.171,3.113,3.113,0,0,0-.512,0H2.185v2.176ZM4.3,86.5a2.488,2.488,0,0,0,.569,0,1.422,1.422,0,0,0,.5-.213A.953.953,0,0,0,5.7,85.9a1.564,1.564,0,0,0-.27-1.664,1.621,1.621,0,0,0-1.052-.313H2.185v2.616Z" transform="translate(0.076 33.158)"/>
      <path id="Trazado_2" data-name="Trazado 2" d="M11.437,78.59l3.413,9.527H12.774L12.077,86H8.664l-.725,2.119H5.92L9.375,78.59Zm.114,5.858L10.4,80.936h0l-1.18,3.512Z" transform="translate(2.498 33.158)"/>
      <path id="Trazado_3" data-name="Trazado 3" d="M14.845,78.59l3.811,6.4h0v-6.4h1.877v9.527H18.556l-3.8-6.37h0v6.37H12.84V78.59Z" transform="translate(5.417 33.158)"/>
      <path id="Trazado_4" data-name="Trazado 4" d="M25.577,81.19a2.29,2.29,0,0,0-.455-.54,1.963,1.963,0,0,0-.6-.355,2.432,2.432,0,0,0-.725-.128,2.3,2.3,0,0,0-1.152.284,1.948,1.948,0,0,0-.754.725,3.171,3.171,0,0,0-.441,1.052,5.688,5.688,0,0,0-.128,1.209,5.232,5.232,0,0,0,.128,1.166,3.015,3.015,0,0,0,.441,1.024,2.047,2.047,0,0,0,.754.725,2.3,2.3,0,0,0,1.152.284,1.806,1.806,0,0,0,1.422-.6,2.744,2.744,0,0,0,.626-1.55h1.976a4.849,4.849,0,0,1-.427,1.635,3.683,3.683,0,0,1-2.062,2,4.635,4.635,0,0,1-1.564.27,4.423,4.423,0,0,1-1.877-.384,4.081,4.081,0,0,1-1.422-1.052A4.806,4.806,0,0,1,19.59,85.4a6.214,6.214,0,0,1-.27-1.905,6.327,6.327,0,0,1,.3-1.976,4.806,4.806,0,0,1,.882-1.593,3.953,3.953,0,0,1,1.422-1.066,4.265,4.265,0,0,1,1.877-.4,4.749,4.749,0,0,1,1.422.227,3.8,3.8,0,0,1,1.194.668,3.413,3.413,0,0,1,.882,1.066,4.266,4.266,0,0,1,.441,1.422H25.8a1.777,1.777,0,0,0-.228-.654Z" transform="translate(8.151 33.103)"/>
      <path id="Trazado_5" data-name="Trazado 5" d="M26.369,81.487a4.806,4.806,0,0,1,.882-1.593,4.067,4.067,0,0,1,1.422-1.066,4.691,4.691,0,0,1,3.782,0,4.024,4.024,0,0,1,1.422,1.066,4.806,4.806,0,0,1,.882,1.593,6.328,6.328,0,0,1,.3,2.019,6.216,6.216,0,0,1-.313,1.949,4.806,4.806,0,0,1-.881,1.563,4.166,4.166,0,0,1-1.422,1.052,4.85,4.85,0,0,1-3.782,0,4.266,4.266,0,0,1-1.422-1.052,4.806,4.806,0,0,1-.882-1.564,6.214,6.214,0,0,1-.284-1.948A6.328,6.328,0,0,1,26.369,81.487ZM28.2,84.63a3.327,3.327,0,0,0,.441,1.024,1.991,1.991,0,0,0,.768.725,2.232,2.232,0,0,0,1.152.284,2.3,2.3,0,0,0,1.095-.313,2.2,2.2,0,0,0,.768-.725,3.313,3.313,0,0,0,.427-1.024,5.232,5.232,0,0,0,.228-1.095,5.688,5.688,0,0,0-.128-1.209,3.484,3.484,0,0,0-.427-1.052,2.076,2.076,0,0,0-.768-.725,2.3,2.3,0,0,0-1.152-.284,2.232,2.232,0,0,0-1.152.284,1.891,1.891,0,0,0-.768.725,3.5,3.5,0,0,0-.441,1.052,5.688,5.688,0,0,0-.128,1.209A5.233,5.233,0,0,0,28.2,84.63Z" transform="translate(10.999 33.09)"/>
      <path id="Trazado_6" data-name="Trazado 6" d="M41.546,88.113a3.185,3.185,0,0,1-1.322.3,4.535,4.535,0,0,1-1.891-.384,4.166,4.166,0,0,1-1.422-1.052,4.564,4.564,0,0,1-.882-1.564,6.213,6.213,0,0,1-.3-1.905,6.328,6.328,0,0,1,.384-2.019A4.564,4.564,0,0,1,37,79.895a4.024,4.024,0,0,1,1.422-1.066,4.266,4.266,0,0,1,1.891-.4,4.052,4.052,0,0,1,1.422.228,3.726,3.726,0,0,1,1.194.64,3.611,3.611,0,0,1,.882,1.066,3.526,3.526,0,0,1,.412,1.422H42.157a1.991,1.991,0,0,0-.682-1.209,2.019,2.019,0,0,0-1.251-.4,2.261,2.261,0,0,0-1.152.284,2.076,2.076,0,0,0-.768.725,3.157,3.157,0,0,0-.427,1.052,5.689,5.689,0,0,0-.128,1.209,5.232,5.232,0,0,0,.128,1.166,3,3,0,0,0,.427,1.024,2.2,2.2,0,0,0,.768.725,2.261,2.261,0,0,0,1.152.284,2.19,2.19,0,0,0,1.578-.512,2.46,2.46,0,0,0,.64-1.536H40.38V83.037h3.839v5.147h-1.28l-.2-1.066A2.844,2.844,0,0,1,41.546,88.113Z" transform="translate(15.075 33.09)"/>
      <path id="Trazado_7" data-name="Trazado 7" d="M49.755,78.59v1.763h-4.82V82.4h4.422v1.635H44.935v2.332h4.92v1.749H42.93V78.59Z" transform="translate(18.113 33.158)"/>
      <path id="Trazado_8" data-name="Trazado 8" d="M50.831,78.59l3.825,6.4h0v-6.4h1.891v9.527h-2l-3.8-6.37h0v6.37H48.84V78.59Z" transform="translate(20.606 33.158)"/>
      <path id="Trazado_9" data-name="Trazado 9" d="M62.429,78.59v1.763H57.595V82.4h4.436v1.635H57.595v2.332h4.934v1.749H55.59V78.59Z" transform="translate(23.454 33.158)"/>
      <path id="Trazado_10" data-name="Trazado 10" d="M66.477,78.607a2.759,2.759,0,0,1,1.109.213,2.3,2.3,0,0,1,.839.569,2.445,2.445,0,0,1,.54.825,2.73,2.73,0,0,1,.185,1.024,2.844,2.844,0,0,1-.341,1.422A2.162,2.162,0,0,1,67.7,83.6h0a1.635,1.635,0,0,1,.626.327,2.134,2.134,0,0,1,.4.526,2.361,2.361,0,0,1,.213.654,6.34,6.34,0,0,1,.1.725v.54a4.424,4.424,0,0,0,0,.611,3.666,3.666,0,0,0,.1.611,1.166,1.166,0,0,0,.213.483H67.372a3.726,3.726,0,0,1-.213-1.066,4.21,4.21,0,0,0-.114-1.209,1.905,1.905,0,0,0-.441-1.095,1.422,1.422,0,0,0-1.081-.341h-2v3.711H61.5V78.55Zm-.711,4.266a1.507,1.507,0,0,0,1.038-.327,1.422,1.422,0,0,0,.341-1.038,1.308,1.308,0,0,0-.384-.9,1.507,1.507,0,0,0-1.038-.313h-2.2v2.687Z" transform="translate(25.947 33.141)"/>
      <path id="Trazado_11" data-name="Trazado 11" d="M72.927,78.59l3.413,9.527h-2.09L73.567,86H70.14l-.711,2.119H67.41l3.455-9.527Zm.114,5.858-1.152-3.512h0l-1.194,3.512Z" transform="translate(28.441 33.158)"/>
      <path id="Trazado_12" data-name="Trazado 12" d="M76.335,78.59v7.778H80.8v1.749H74.33V78.59Z" transform="translate(31.36 33.158)"/>
      <path id="Trazado_13" data-name="Trazado 13" d="M87.264,78.607a2.844,2.844,0,0,1,1.109.213,2.3,2.3,0,0,1,.839.569,2.446,2.446,0,0,1,.54.825,3.043,3.043,0,0,1,.185,1.024,2.844,2.844,0,0,1-.341,1.422,2.161,2.161,0,0,1-1.109.938h0a1.421,1.421,0,0,1,.611.327,1.606,1.606,0,0,1,.4.526,1.99,1.99,0,0,1,.228.654,6.34,6.34,0,0,1,.1.725v.54a4.424,4.424,0,0,0,0,.611,3.668,3.668,0,0,0,.1.611,1.165,1.165,0,0,0,.213.483H88.2a3.725,3.725,0,0,1-.213-1.066,4.21,4.21,0,0,0-.114-1.209,1.906,1.906,0,0,0-.441-1.095,1.422,1.422,0,0,0-1.081-.341H84.335v3.711h-2V78.55Zm-.725,4.266A1.139,1.139,0,0,0,87.9,81.564a1.308,1.308,0,0,0-.355-.953A1.422,1.422,0,0,0,86.51,80.3H84.335v2.687Z" transform="translate(34.736 33.141)"/>
      <path id="Trazado_14" data-name="Trazado 14" d="M95.634,87.392a4.834,4.834,0,0,1-5.688,0,3.711,3.711,0,0,1-1.024-2.844V78.59h1.962v5.929a4.651,4.651,0,0,0,0,.768,1.678,1.678,0,0,0,.27.654,1.55,1.55,0,0,0,.569.469,2.318,2.318,0,0,0,.981.185,1.834,1.834,0,0,0,1.422-.512,2.446,2.446,0,0,0,.412-1.564V78.59h2v5.929A3.711,3.711,0,0,1,95.634,87.392Z" transform="translate(37.513 33.158)"/>
      <path id="Trazado_15" data-name="Trazado 15" d="M98.49,78.59l2.147,6.555h0l2.033-6.555h2.844v9.527h-1.891V81.363h0l-2.232,6.754H99.812l-2.247-6.683h0v6.683H95.66V78.59Z" transform="translate(40.36 33.158)"/>
      <path id="Trazado_16" data-name="Trazado 16" d="M105.915,78.59v9.527h-2V78.59Z" transform="translate(43.84 33.158)"/>
      <path id="Trazado_17" data-name="Trazado 17" d="M108.628,79.371l3.811,6.4h0v-6.4h1.877V88.9h-2l-3.754-6.37h0V88.9H106.68V79.371Zm4.067-2.133a2.02,2.02,0,0,1-.242.5,1.421,1.421,0,0,1-.412.37,1.123,1.123,0,0,1-.64.156,1.665,1.665,0,0,1-.54,0l-.512-.156-.455-.156a1.423,1.423,0,0,0-.427-.071.412.412,0,0,0-.37.156,1.237,1.237,0,0,0-.171.412h-.782a4.422,4.422,0,0,1,.156-.583,2.347,2.347,0,0,1,.284-.526,1.208,1.208,0,0,1,.469-.37,1.422,1.422,0,0,1,.7-.156,1.024,1.024,0,0,1,.412.085l.412.142a3.579,3.579,0,0,0,.412.171,1.422,1.422,0,0,0,.427,0,.54.54,0,0,0,.427-.142.384.384,0,0,0,.114-.327h.867A.7.7,0,0,1,112.695,77.238Z" transform="translate(45.009 32.377)"/>
      <path id="Trazado_18" data-name="Trazado 18" d="M118.237,78.59l3.413,9.527h-2.076l-.7-2.119h-3.413l-.725,2.119H112.72l3.455-9.527Zm.114,5.858L117.2,80.936h0l-1.237,3.512Z" transform="translate(47.558 33.158)"/>
      <path id="Trazado_19" data-name="Trazado 19" d="M121.659,78.59v3.669h3.7V78.59h2v9.527h-2V84.007h-3.7v4.109H119.64V78.59Z" transform="translate(50.477 33.158)"/>
      <path id="Trazado_20" data-name="Trazado 20" d="M133.11,87.392a4.835,4.835,0,0,1-5.688,0,3.768,3.768,0,0,1-1.01-2.844V78.59h2v5.929a4.647,4.647,0,0,0,0,.768,1.678,1.678,0,0,0,.27.654,1.55,1.55,0,0,0,.569.469,2.359,2.359,0,0,0,.981.185,1.834,1.834,0,0,0,1.493-.512,2.46,2.46,0,0,0,.4-1.564V78.59h2.019v5.929A3.654,3.654,0,0,1,133.11,87.392Z" transform="translate(53.331 33.158)"/>
      <path id="Trazado_21" data-name="Trazado 21" d="M135.159,78.59v9.527H133.14V78.59Z" transform="translate(56.173 33.158)"/>
      <path id="Trazado_22" data-name="Trazado 22" d="M29.419,24.09a41.734,41.734,0,0,1,8.418.839,20.419,20.419,0,0,1,7.11,2.844,15.1,15.1,0,0,1,4.92,5.275,16.352,16.352,0,0,1,1.848,8.162,16.736,16.736,0,0,1-3.356,9.953,16.1,16.1,0,0,1-3.8,3.555,14.219,14.219,0,0,1-4.92,2.062v.2A16.309,16.309,0,0,1,50.35,62.5a16.963,16.963,0,0,1,4,11.475,26.818,26.818,0,0,1-.313,3.8,18.031,18.031,0,0,1-1.166,4.266A17.732,17.732,0,0,1,50.336,86.3a15.115,15.115,0,0,1-4.422,3.768A26.719,26.719,0,0,1,39.088,92.7a39.2,39.2,0,0,1-9.683,1.038H0V24.09Zm0,30.585a22.751,22.751,0,0,0,6.91-.938,14.29,14.29,0,0,0,4.906-2.531,10.465,10.465,0,0,0,2.844-3.768,11.077,11.077,0,0,0,.967-4.593q0-13.082-15.641-13.082H6.655V54.675Zm0,33.5a38.264,38.264,0,0,0,7.01-.626,16.125,16.125,0,0,0,5.844-2.3,11.859,11.859,0,0,0,4-4.408,14.987,14.987,0,0,0,1.422-6.982A11.617,11.617,0,0,0,43,63.775q-4.735-3.37-13.579-3.37H6.669v27.77Z" transform="translate(0 10.164)"/>
      <path id="Trazado_23" data-name="Trazado 23" d="M101.3,94.29l-.882-12.712h-.185A23.476,23.476,0,0,1,90.2,92.384a25.069,25.069,0,0,1-6.669,2.488,34.752,34.752,0,0,1-7.351.782,32.7,32.7,0,0,1-14.361-3,29.561,29.561,0,0,1-10.28-7.963,33.727,33.727,0,0,1-6.143-11.517,47.7,47.7,0,0,1,0-27.557,34.4,34.4,0,0,1,6.143-11.574,29.5,29.5,0,0,1,10.28-8.005,32.7,32.7,0,0,1,14.361-2.986A35.946,35.946,0,0,1,86.5,24.474a26.234,26.234,0,0,1,15.1,11.631,28.1,28.1,0,0,1,3.6,10.067H98.573a15.513,15.513,0,0,0-1.991-6.114A21.5,21.5,0,0,0,92,34.442a23.5,23.5,0,0,0-15.826-5.759A25.168,25.168,0,0,0,64.29,31.313,23.789,23.789,0,0,0,56.157,38.3a30,30,0,0,0-4.664,9.825,42.074,42.074,0,0,0,0,22.424A29.86,29.86,0,0,0,56.157,80.4a23.675,23.675,0,0,0,8.133,7,25.168,25.168,0,0,0,11.887,2.631,26.191,26.191,0,0,0,10.28-1.905,21.328,21.328,0,0,0,7.579-5.261,22.509,22.509,0,0,0,4.678-8.1,30.928,30.928,0,0,0,1.422-10.266H76.561V58.8H106.08V94.29Z" transform="translate(18.294 9.723)"/>
      <path id="Trazado_24" data-name="Trazado 24" d="M128.291,24.09a30.443,30.443,0,0,1,8.133,1.081,19.566,19.566,0,0,1,6.711,3.27,15.641,15.641,0,0,1,4.579,5.688,18.2,18.2,0,0,1,1.706,8.148,19.608,19.608,0,0,1-3.413,11.546,15.641,15.641,0,0,1-10.124,6.256v.185a15.641,15.641,0,0,1,5.688,1.806,11.375,11.375,0,0,1,3.654,3.37,14.218,14.218,0,0,1,2.048,4.749,35.543,35.543,0,0,1,.825,5.8c0,1.18.128,2.616.2,4.266s.185,3.4.384,5.119a31.741,31.741,0,0,0,.924,4.891,9.484,9.484,0,0,0,1.706,3.569H144a8.745,8.745,0,0,1-.924-2.4A21.334,21.334,0,0,1,142.6,88.5c-.1-1.01-.185-2-.242-2.972s-.128-1.834-.2-2.545c-.128-2.474-.341-4.934-.626-7.38a20.163,20.163,0,0,0-1.863-6.541,11.375,11.375,0,0,0-4.081-4.635,12.285,12.285,0,0,0-7.351-1.564H103.066V93.849H96.44V24.09Zm-.5,33.116a17.589,17.589,0,0,0,5.759-.924,14.375,14.375,0,0,0,4.763-2.687,13.01,13.01,0,0,0,3.256-4.266,12.655,12.655,0,0,0,1.223-5.688,13.764,13.764,0,0,0-3.7-10.152c-2.474-2.474-6.228-3.711-11.375-3.711H103.066V57.221Z" transform="translate(40.689 10.164)"/>
      <path id="Trazado_25" data-name="Trazado 25" d="M49.784,0l3.455,9.968,10.551.2-8.418,6.413,3.071,10.067-8.659-6.029-8.659,6.029L44.2,16.579,35.75,10.167l10.579-.2Z" transform="translate(15.083)" fill="#ffd34b"/>
      <path id="Trazado_26" data-name="Trazado 26" d="M71.766,0l3.469,9.968,10.536.2-8.4,6.413,3.043,10.067-8.645-6.029-8.688,6.029,3.057-10.067L57.76,10.167l10.522-.2Z" transform="translate(24.369)" fill="#337ab7"/>
      <path id="Trazado_27" data-name="Trazado 27" d="M93.5,0l3.484,9.968,10.579.2-8.4,6.413,3.057,10.067L93.5,20.618l-8.631,6.029,3.043-10.067L79.52,10.167l10.536-.2Z" transform="translate(33.55)" fill="#eb3d2f"/>
    </g>
  </g>
</svg>
