<svg xmlns="http://www.w3.org/2000/svg" width="50.549" height="32" viewBox="0 0 50.549 32">
  <g id="Layer_2" data-name="Layer 2" transform="translate(3)">
    <g id="Layer_1" data-name="Layer 1" transform="translate(-3)">
      <path id="Trazado_1" data-name="Trazado 1" d="M1.311,78.59a1.351,1.351,0,0,1,.314.034.681.681,0,0,1,.243.1.479.479,0,0,1,.157.195.681.681,0,0,1,.056.3.6.6,0,0,1-.1.314.618.618,0,0,1-.247.206.584.584,0,0,1,.333.236.719.719,0,0,1,.109.4.7.7,0,0,1-.071.329.6.6,0,0,1-.191.228.8.8,0,0,1-.273.127,1.1,1.1,0,0,1-.314.041H.18V78.59ZM1.236,79.6a.374.374,0,0,0,.232-.067.266.266,0,0,0,.094-.228.326.326,0,0,0-.03-.146.258.258,0,0,0-.082-.086.288.288,0,0,0-.116-.045.821.821,0,0,0-.135,0H.708V79.6Zm.03,1.067a.655.655,0,0,0,.15,0,.374.374,0,0,0,.131-.056.251.251,0,0,0,.086-.1.412.412,0,0,0-.071-.438.427.427,0,0,0-.277-.082H.708v.689Z" transform="translate(-0.113 -49.169)"/>
      <path id="Trazado_2" data-name="Trazado 2" d="M7.372,78.59l.9,2.508H7.724l-.183-.558h-.9l-.191.558H5.92l.91-2.508Zm.03,1.542-.3-.925h0l-.311.925Z" transform="translate(-3.704 -49.169)"/>
      <path id="Trazado_3" data-name="Trazado 3" d="M13.368,78.59l1,1.685h0V78.59h.494V81.1h-.52l-1-1.677h0V81.1H12.84V78.59Z" transform="translate(-8.033 -49.169)"/>
      <path id="Trazado_4" data-name="Trazado 4" d="M20.967,79.178a.6.6,0,0,0-.12-.142.517.517,0,0,0-.157-.094.641.641,0,0,0-.191-.034.606.606,0,0,0-.3.075.513.513,0,0,0-.2.191.835.835,0,0,0-.116.277,1.5,1.5,0,0,0-.034.318,1.377,1.377,0,0,0,.034.307.794.794,0,0,0,.116.27.539.539,0,0,0,.2.191.606.606,0,0,0,.3.075.475.475,0,0,0,.374-.157.723.723,0,0,0,.165-.408h.52a1.277,1.277,0,0,1-.112.43.97.97,0,0,1-.543.528,1.22,1.22,0,0,1-.412.071,1.164,1.164,0,0,1-.494-.1,1.074,1.074,0,0,1-.374-.277,1.265,1.265,0,0,1-.232-.412,1.636,1.636,0,0,1-.071-.5,1.666,1.666,0,0,1,.079-.52,1.266,1.266,0,0,1,.232-.419A1.041,1.041,0,0,1,20,78.565a1.123,1.123,0,0,1,.494-.1,1.25,1.25,0,0,1,.374.06,1,1,0,0,1,.314.176.9.9,0,0,1,.232.281,1.123,1.123,0,0,1,.116.374h-.509a.468.468,0,0,0-.06-.172Z" transform="translate(-12.087 -49.088)"/>
      <path id="Trazado_5" data-name="Trazado 5" d="M26.148,79.234a1.265,1.265,0,0,1,.232-.419,1.071,1.071,0,0,1,.374-.281,1.235,1.235,0,0,1,1,0,1.06,1.06,0,0,1,.374.281,1.266,1.266,0,0,1,.232.419,1.666,1.666,0,0,1,.079.532,1.637,1.637,0,0,1-.082.513,1.265,1.265,0,0,1-.232.411,1.1,1.1,0,0,1-.374.277,1.277,1.277,0,0,1-1,0,1.123,1.123,0,0,1-.374-.277,1.266,1.266,0,0,1-.232-.412,1.636,1.636,0,0,1-.075-.513A1.666,1.666,0,0,1,26.148,79.234Zm.483.827a.876.876,0,0,0,.116.27.524.524,0,0,0,.2.191.588.588,0,0,0,.3.075.606.606,0,0,0,.288-.082.58.58,0,0,0,.2-.191.872.872,0,0,0,.112-.27,1.378,1.378,0,0,0,.06-.288,1.5,1.5,0,0,0-.034-.318.917.917,0,0,0-.112-.277.547.547,0,0,0-.2-.191.607.607,0,0,0-.3-.075.588.588,0,0,0-.3.075.5.5,0,0,0-.2.191.921.921,0,0,0-.116.277,1.5,1.5,0,0,0-.034.318A1.378,1.378,0,0,0,26.631,80.062Z" transform="translate(-16.31 -49.069)"/>
      <path id="Trazado_6" data-name="Trazado 6" d="M37.261,80.979a.838.838,0,0,1-.348.079,1.194,1.194,0,0,1-.5-.1,1.1,1.1,0,0,1-.374-.277,1.2,1.2,0,0,1-.232-.412,1.636,1.636,0,0,1-.079-.5,1.666,1.666,0,0,1,.1-.532,1.2,1.2,0,0,1,.232-.419,1.06,1.06,0,0,1,.374-.281,1.123,1.123,0,0,1,.5-.1,1.067,1.067,0,0,1,.374.06.981.981,0,0,1,.314.168.951.951,0,0,1,.232.281.928.928,0,0,1,.109.374h-.543a.524.524,0,0,0-.18-.318.531.531,0,0,0-.329-.1.6.6,0,0,0-.3.075.547.547,0,0,0-.2.191.831.831,0,0,0-.112.277,1.5,1.5,0,0,0-.034.318,1.377,1.377,0,0,0,.034.307.79.79,0,0,0,.112.27.58.58,0,0,0,.2.191.6.6,0,0,0,.3.075.576.576,0,0,0,.416-.135.648.648,0,0,0,.168-.4h-.543v-.412h1.011V81h-.337l-.052-.281A.749.749,0,0,1,37.261,80.979Z" transform="translate(-22.354 -49.069)"/>
      <path id="Trazado_7" data-name="Trazado 7" d="M44.727,78.59v.464H43.458v.539h1.164v.431H43.458v.614h1.3v.46H42.93V78.59Z" transform="translate(-26.859 -49.169)"/>
      <path id="Trazado_8" data-name="Trazado 8" d="M49.364,78.59l1.007,1.685h0V78.59h.5V81.1h-.528l-1-1.677h0V81.1h-.5V78.59Z" transform="translate(-30.557 -49.169)"/>
      <path id="Trazado_9" data-name="Trazado 9" d="M57.391,78.59v.464H56.118v.539h1.168v.431H56.118v.614h1.3v.46H55.59V78.59Z" transform="translate(-34.78 -49.169)"/>
      <path id="Trazado_10" data-name="Trazado 10" d="M62.81,78.565a.726.726,0,0,1,.292.056.607.607,0,0,1,.221.15.644.644,0,0,1,.142.217.719.719,0,0,1,.049.27.749.749,0,0,1-.09.374.569.569,0,0,1-.292.247h0a.43.43,0,0,1,.165.086.562.562,0,0,1,.1.139.622.622,0,0,1,.056.172,1.671,1.671,0,0,1,.026.191v.142a1.164,1.164,0,0,0,0,.161.964.964,0,0,0,.026.161.307.307,0,0,0,.056.127h-.52a.981.981,0,0,1-.056-.281,1.108,1.108,0,0,0-.03-.318.5.5,0,0,0-.116-.288.374.374,0,0,0-.285-.09h-.528v.977H61.5V78.55Zm-.187,1.123A.4.4,0,0,0,62.9,79.6a.374.374,0,0,0,.09-.273.344.344,0,0,0-.1-.236.4.4,0,0,0-.273-.082h-.58v.708Z" transform="translate(-38.477 -49.144)"/>
      <path id="Trazado_11" data-name="Trazado 11" d="M68.863,78.59l.9,2.508h-.55l-.18-.558h-.9l-.187.558H67.41l.91-2.508Zm.03,1.542-.3-.925h0l-.314.925Z" transform="translate(-42.175 -49.169)"/>
      <path id="Trazado_12" data-name="Trazado 12" d="M74.858,78.59v2.048h1.175v.46h-1.7V78.59Z" transform="translate(-46.504 -49.169)"/>
      <path id="Trazado_13" data-name="Trazado 13" d="M83.629,78.565a.748.748,0,0,1,.292.056.606.606,0,0,1,.221.15.644.644,0,0,1,.142.217.8.8,0,0,1,.049.27.749.749,0,0,1-.09.374.569.569,0,0,1-.292.247h0a.374.374,0,0,1,.161.086.423.423,0,0,1,.1.139.524.524,0,0,1,.06.172,1.667,1.667,0,0,1,.026.191v.142a1.171,1.171,0,0,0,0,.161.967.967,0,0,0,.026.161.307.307,0,0,0,.056.127h-.509a.981.981,0,0,1-.056-.281,1.108,1.108,0,0,0-.03-.318.5.5,0,0,0-.116-.288.374.374,0,0,0-.285-.09h-.532v.977H82.33V78.55Zm-.191,1.123a.3.3,0,0,0,.359-.344.344.344,0,0,0-.094-.251.374.374,0,0,0-.273-.082h-.573v.708Z" transform="translate(-51.509 -49.144)"/>
      <path id="Trazado_14" data-name="Trazado 14" d="M90.683,80.907a1.273,1.273,0,0,1-1.5,0,.977.977,0,0,1-.27-.749V78.59h.517v1.561a1.225,1.225,0,0,0,0,.2.442.442,0,0,0,.071.172.408.408,0,0,0,.15.124.61.61,0,0,0,.258.049.483.483,0,0,0,.374-.135.644.644,0,0,0,.109-.412V78.59h.528v1.561A.977.977,0,0,1,90.683,80.907Z" transform="translate(-55.628 -49.169)"/>
      <path id="Trazado_15" data-name="Trazado 15" d="M96.4,78.59l.565,1.726h0l.535-1.726h.749V81.1h-.5V79.32h0L97.169,81.1h-.416l-.591-1.759h0V81.1h-.5V78.59Z" transform="translate(-59.849 -49.169)"/>
      <path id="Trazado_16" data-name="Trazado 16" d="M104.438,78.59V81.1h-.528V78.59Z" transform="translate(-65.011 -49.169)"/>
      <path id="Trazado_17" data-name="Trazado 17" d="M107.193,77.433l1,1.685h0V77.433h.494v2.508h-.528l-.988-1.677h0v1.677h-.494V77.433Zm1.071-.562A.531.531,0,0,1,108.2,77a.374.374,0,0,1-.109.1.3.3,0,0,1-.168.041.439.439,0,0,1-.142,0l-.135-.041-.12-.041a.375.375,0,0,0-.112-.019.109.109,0,0,0-.1.041.326.326,0,0,0-.045.109h-.206a1.161,1.161,0,0,1,.041-.154.619.619,0,0,1,.075-.139.318.318,0,0,1,.124-.1.375.375,0,0,1,.183-.041.27.27,0,0,1,.109.022l.109.037a.941.941,0,0,0,.109.045.375.375,0,0,0,.112,0,.142.142,0,0,0,.112-.037.1.1,0,0,0,.03-.086h.228A.183.183,0,0,1,108.264,76.871Z" transform="translate(-66.744 -48.012)"/>
      <path id="Trazado_18" data-name="Trazado 18" d="M114.173,78.59l.9,2.508h-.547l-.183-.558h-.9l-.191.558h-.532l.91-2.508Zm.03,1.542-.3-.925h0l-.326.925Z" transform="translate(-70.523 -49.169)"/>
      <path id="Trazado_19" data-name="Trazado 19" d="M120.172,78.59v.966h.973V78.59h.528V81.1h-.528V80.016h-.973V81.1h-.532V78.59Z" transform="translate(-74.852 -49.169)"/>
      <path id="Trazado_20" data-name="Trazado 20" d="M128.169,80.907a1.273,1.273,0,0,1-1.5,0,.992.992,0,0,1-.266-.749V78.59h.528v1.561a1.225,1.225,0,0,0,0,.2.442.442,0,0,0,.071.172.408.408,0,0,0,.15.124.621.621,0,0,0,.258.049.483.483,0,0,0,.393-.135.648.648,0,0,0,.1-.412V78.59h.532v1.561A.962.962,0,0,1,128.169,80.907Z" transform="translate(-79.084 -49.169)"/>
      <path id="Trazado_21" data-name="Trazado 21" d="M133.672,78.59V81.1h-.532V78.59Z" transform="translate(-83.298 -49.169)"/>
      <path id="Trazado_22" data-name="Trazado 22" d="M7.745,24.09a10.987,10.987,0,0,1,2.216.221,5.376,5.376,0,0,1,1.872.749,3.976,3.976,0,0,1,1.3,1.389,4.305,4.305,0,0,1,.487,2.149,4.406,4.406,0,0,1-.883,2.62,4.238,4.238,0,0,1-1,.936,3.744,3.744,0,0,1-1.3.543v.052A4.294,4.294,0,0,1,13.256,34.2a4.466,4.466,0,0,1,1.052,3.021,7.06,7.06,0,0,1-.082,1,4.747,4.747,0,0,1-.307,1.123,4.668,4.668,0,0,1-.666,1.123,3.979,3.979,0,0,1-1.164.992,7.034,7.034,0,0,1-1.8.693,10.321,10.321,0,0,1-2.549.273H0V24.09Zm0,8.052A5.99,5.99,0,0,0,9.565,31.9a3.762,3.762,0,0,0,1.292-.666,2.755,2.755,0,0,0,.749-.992,2.916,2.916,0,0,0,.255-1.209q0-3.444-4.118-3.444H1.752v6.559Zm0,8.82A10.075,10.075,0,0,0,9.591,40.8a4.246,4.246,0,0,0,1.539-.606,3.122,3.122,0,0,0,1.052-1.16,3.946,3.946,0,0,0,.374-1.838,3.058,3.058,0,0,0-1.235-2.654,6.114,6.114,0,0,0-3.575-.887H1.756v7.311Z" transform="translate(0 -15.072)"/>
      <path id="Trazado_23" data-name="Trazado 23" d="M58.615,41.8l-.232-3.347h-.049A6.181,6.181,0,0,1,55.691,41.3a6.6,6.6,0,0,1-1.756.655A9.149,9.149,0,0,1,52,42.161a8.61,8.61,0,0,1-3.781-.79,7.783,7.783,0,0,1-2.707-2.1A8.879,8.879,0,0,1,43.9,36.243a12.559,12.559,0,0,1,0-7.255,9.056,9.056,0,0,1,1.617-3.047,7.768,7.768,0,0,1,2.707-2.108A8.61,8.61,0,0,1,52,23.047a9.464,9.464,0,0,1,2.718.374,6.907,6.907,0,0,1,3.976,3.062,7.4,7.4,0,0,1,.947,2.65H57.9a4.084,4.084,0,0,0-.524-1.61,5.66,5.66,0,0,0-1.205-1.479A6.188,6.188,0,0,0,52,24.529a6.626,6.626,0,0,0-3.13.693,6.263,6.263,0,0,0-2.141,1.838A7.9,7.9,0,0,0,45.5,29.647a11.077,11.077,0,0,0,0,5.9,7.862,7.862,0,0,0,1.228,2.594,6.233,6.233,0,0,0,2.141,1.842,6.626,6.626,0,0,0,3.13.693,6.9,6.9,0,0,0,2.707-.5,5.615,5.615,0,0,0,2-1.385,5.926,5.926,0,0,0,1.232-2.134,8.142,8.142,0,0,0,.374-2.7H52.1v-1.5h7.772V41.8Z" transform="translate(-27.128 -14.418)"/>
      <path id="Trazado_24" data-name="Trazado 24" d="M104.826,24.09a8.015,8.015,0,0,1,2.141.285,5.151,5.151,0,0,1,1.767.861,4.118,4.118,0,0,1,1.205,1.5,4.792,4.792,0,0,1,.449,2.145,5.162,5.162,0,0,1-.9,3.04,4.118,4.118,0,0,1-2.665,1.647v.049a4.118,4.118,0,0,1,1.5.475,3,3,0,0,1,.962.887,3.743,3.743,0,0,1,.539,1.25,9.36,9.36,0,0,1,.217,1.527c0,.311.034.689.052,1.123s.049.895.1,1.348a8.355,8.355,0,0,0,.243,1.288,2.5,2.5,0,0,0,.449.94h-1.924a2.3,2.3,0,0,1-.243-.633,5.619,5.619,0,0,1-.127-.771c-.026-.266-.049-.528-.064-.782s-.034-.483-.052-.67c-.034-.651-.09-1.3-.165-1.943a5.308,5.308,0,0,0-.49-1.722,3,3,0,0,0-1.074-1.22,3.234,3.234,0,0,0-1.935-.412H98.184v8.157H96.44V24.09Zm-.131,8.719a4.631,4.631,0,0,0,1.516-.243,3.785,3.785,0,0,0,1.254-.708,3.426,3.426,0,0,0,.857-1.123,3.332,3.332,0,0,0,.322-1.5,3.624,3.624,0,0,0-.973-2.673,4.061,4.061,0,0,0-2.995-.977H98.184v7.225Z" transform="translate(-60.337 -15.072)"/>
      <path id="Trazado_25" data-name="Trazado 25" d="M39.445,0l.91,2.624,2.778.052L40.916,4.365l.809,2.65-2.28-1.587-2.28,1.587.809-2.65L35.75,2.677l2.785-.052Z" transform="translate(-22.367)" fill="#ffd34b"/>
      <path id="Trazado_26" data-name="Trazado 26" d="M61.447,0l.913,2.624,2.774.052L62.922,4.365l.8,2.65L61.447,5.428,59.16,7.015l.8-2.65-2.2-1.688,2.77-.052Z" transform="translate(-36.137)" fill="#337ab7"/>
      <path id="Trazado_27" data-name="Trazado 27" d="M83.2,0l.917,2.624,2.785.052L84.69,4.365l.8,2.65L83.2,5.428,80.928,7.015l.8-2.65L79.52,2.677l2.774-.052Z" transform="translate(-49.751)" fill="#eb3d2f"/>
    </g>
  </g>
</svg>
